<svg xmlns="http://www.w3.org/2000/svg" viewBox="0 0 64 64" width="64" height="64" role="img" aria-label="Allô">
  <title>Allô</title>
  <rect width="64" height="64" rx="14" fill="#0B0B0F"/>
  <!-- Handset: the phone system at the core of the product -->
  <path d="M22.6 20.1c-1.3-1.4-3.5-1.5-4.8-.1l-2.4 2.5c-1.5 1.6-1.8 4-.7 6 3.9 7.2 9.9 13.2 17.1 17.1 2 1.1 4.4.8 6-.7l2.5-2.4c1.4-1.3 1.3-3.5-.1-4.8l-4.2-3.9c-1.2-1.1-3-1.1-4.2 0l-1.6 1.5c-2.7-1.8-5-4.1-6.8-6.8l1.5-1.6c1.1-1.2 1.1-3 0-4.2z" fill="#FFFFFF"/>
  <!-- Circumflex from the "ô" -->
  <path d="M39.5 17.8 44.2 13l4.7 4.8" fill="none" stroke="#FF5A2D" stroke-width="3.2" stroke-linecap="round" stroke-linejoin="round"/>
</svg>
